<svg width="130" height="64" viewBox="0 0 130 64" fill="none" xmlns="http://www.w3.org/2000/svg">
<mask id="mask0_2045_26150" style="mask-type:luminance" maskUnits="userSpaceOnUse" x="25" y="20" width="78" height="24">
<path d="M103 20.2188H25V43.0301H103V20.2188Z" fill="white"/>
</mask>
<g mask="url(#mask0_2045_26150)">
<path d="M33.4475 23.8789V30.1152H27.7182V23.8789H25V38.7658H27.719V32.7319H33.4468V38.7658H36.1665V23.8789H33.4475ZM44.8694 33.9541C44.8694 34.5508 44.6324 35.1231 44.2104 35.545C43.7885 35.9669 43.2162 36.204 42.6195 36.204C42.0228 36.204 41.4506 35.9669 41.0286 35.545C40.6067 35.1231 40.3697 34.5508 40.3697 33.9541V27.5772H37.7905V33.9541C37.7905 35.2336 38.2988 36.4606 39.2035 37.3653C40.1082 38.2701 41.3353 38.7783 42.6148 38.7783C43.8942 38.7783 45.1213 38.2701 46.026 37.3653C46.9307 36.4606 47.439 35.2336 47.439 33.9541V27.5772H44.8694V33.9541ZM63.9801 28.2343C63.9801 26.9267 64.8448 26.5125 65.7918 26.5125C66.5556 26.5125 67.5637 27.0938 68.2238 27.7987L69.9125 25.8075C69.0693 24.6669 67.3591 23.8789 65.9588 23.8789C63.1604 23.8789 61.1368 25.5176 61.1368 28.2343C61.1368 33.2749 67.2973 31.6752 67.2973 34.4964C67.2973 35.3662 66.4526 36.1344 65.4857 36.1344C63.9603 36.1344 63.4658 35.389 62.7652 34.6002L60.8903 36.5494C62.0897 38.0211 63.5688 38.7688 65.34 38.7688C67.9986 38.7688 70.137 37.1102 70.137 34.517C70.137 28.9216 63.9757 30.6604 63.9757 28.2343M102.093 36.3876C100.569 36.3876 100.135 35.7282 100.135 34.7186V30.2484H102.505V27.9834H100.135V24.9951L97.5201 26.1688V35.2742C97.5201 37.6032 99.1272 38.7769 101.33 38.7769C101.676 38.7827 102.022 38.7548 102.362 38.6944L103 36.3456C102.712 36.3655 102.382 36.3853 102.093 36.3853M54.6871 27.6516C53.4097 27.6516 52.5178 28.0224 51.6554 28.8679V23.9679H49.0726V33.0505C49.0726 36.4501 51.5303 38.7798 54.2927 38.7798C57.3568 38.7798 60.0522 36.4089 60.0522 33.2168C60.0522 30.0644 57.5716 27.6538 54.6871 27.6538M54.6709 36.18C54.286 36.18 53.9048 36.1042 53.5492 35.9569C53.1935 35.8096 52.8704 35.5937 52.5982 35.3215C52.326 35.0493 52.1101 34.7262 51.9628 34.3705C51.8155 34.0149 51.7397 33.6337 51.7397 33.2488C51.7397 32.8638 51.8155 32.4827 51.9628 32.127C52.1101 31.7714 52.326 31.4483 52.5982 31.1761C52.8704 30.9039 53.1935 30.688 53.5492 30.5407C53.9048 30.3934 54.286 30.3175 54.6709 30.3175C55.4483 30.3175 56.1939 30.6264 56.7436 31.1761C57.2933 31.7258 57.6022 32.4714 57.6022 33.2488C57.6022 34.0262 57.2933 34.7718 56.7436 35.3215C56.1939 35.8712 55.4483 36.18 54.6709 36.18ZM82.7377 33.0814C82.7377 29.8834 80.0481 27.5184 76.9782 27.5184C74.2165 27.5184 71.7581 29.8473 71.7581 33.2477V42.3354H74.3409V37.4288C75.2018 38.2728 76.0951 38.6451 77.3711 38.6451C80.2556 38.6451 82.7377 36.2345 82.7377 33.0814ZM80.2917 33.049C80.2917 33.8264 79.9829 34.572 79.4332 35.1217C78.8834 35.6714 78.1379 35.9803 77.3604 35.9803C76.583 35.9803 75.8374 35.6714 75.2877 35.1217C74.738 34.572 74.4292 33.8264 74.4292 33.049C74.4292 32.2716 74.738 31.526 75.2877 30.9763C75.8374 30.4266 76.583 30.1177 77.3604 30.1177C78.1379 30.1177 78.8834 30.4266 79.4332 30.9763C79.9829 31.526 80.2917 32.2716 80.2917 33.049Z" fill="#2B4D60"/>
<path d="M91.0856 27.3947V24.7994C91.4286 24.6391 91.719 24.3847 91.923 24.0658C92.127 23.7469 92.2362 23.3766 92.238 22.998V22.9384C92.238 21.8347 91.3432 20.9399 90.2394 20.9399H90.1798C89.6497 20.9399 89.1414 21.1504 88.7666 21.5252C88.3918 21.9 88.1812 22.4084 88.1812 22.9384V22.998C88.183 23.3766 88.2922 23.7469 88.4962 24.0658C88.7002 24.3847 88.9906 24.6391 89.3336 24.7994V27.3947C88.3479 27.5457 87.4195 27.9544 86.6426 28.5794L79.5247 23.0356C79.5755 22.8523 79.602 22.664 79.6049 22.4748C79.6058 22.0294 79.4745 21.5938 79.2278 21.223C78.981 20.8522 78.6298 20.5629 78.2186 20.3917C77.8074 20.2205 77.3547 20.1751 76.9177 20.2612C76.4807 20.3474 76.0791 20.5612 75.7636 20.8756C75.4482 21.1901 75.233 21.591 75.1455 22.0277C75.0579 22.4644 75.1018 22.9173 75.2716 23.3291C75.4415 23.7408 75.7296 24.0929 76.0996 24.3409C76.4696 24.5889 76.9049 24.7215 77.3503 24.7221C77.7399 24.7203 78.1223 24.6163 78.4592 24.4204L85.4681 29.8745C84.8385 30.8257 84.51 31.9446 84.5255 33.0852C84.541 34.2258 84.8997 35.3353 85.555 36.2691L83.4232 38.4016C83.2509 38.3465 83.0714 38.3172 82.8905 38.3147C82.5249 38.315 82.1675 38.4237 81.8637 38.627C81.5598 38.8303 81.323 39.1191 81.1832 39.4569C81.0435 39.7948 81.007 40.1665 81.0784 40.525C81.1498 40.8836 81.3258 41.213 81.5844 41.4715C81.8429 41.73 82.1722 41.9061 82.5308 41.9775C82.8894 42.0489 83.2611 42.0124 83.5989 41.8726C83.9367 41.7328 84.2256 41.4961 84.4289 41.1922C84.6322 40.8883 84.7408 40.531 84.7411 40.1654C84.7388 39.9845 84.7095 39.8049 84.6543 39.6326L86.7632 37.523C87.451 38.0524 88.2507 38.4174 89.1013 38.59C89.9519 38.7626 90.8307 38.7383 91.6704 38.5188C92.5101 38.2993 93.2884 37.8905 93.9457 37.3238C94.603 36.757 95.1218 36.0473 95.4625 35.2491C95.8032 34.4508 95.9566 33.5852 95.9111 32.7185C95.8655 31.8518 95.6222 31.007 95.1997 30.2488C94.7772 29.4907 94.1868 28.8393 93.4737 28.3446C92.7606 27.8499 91.9437 27.525 91.0856 27.3947ZM90.2114 35.9306C89.8217 35.9413 89.4337 35.8738 89.0705 35.7321C88.7073 35.5903 88.3761 35.3772 88.0967 35.1053C87.8172 34.8334 87.5951 34.5083 87.4434 34.1491C87.2917 33.7899 87.2135 33.4039 87.2135 33.014C87.2135 32.6241 87.2917 32.2382 87.4434 31.879C87.5951 31.5198 87.8172 31.1947 88.0967 30.9228C88.3761 30.6509 88.7073 30.4378 89.0705 30.296C89.4337 30.1543 89.8217 30.0868 90.2114 30.0975C90.9668 30.124 91.6825 30.4425 92.2077 30.9862C92.7329 31.5298 93.0266 32.256 93.027 33.0119C93.0273 33.7678 92.7344 34.4943 92.2097 35.0384C91.6851 35.5826 90.9698 35.9019 90.2144 35.9291" fill="#2B4D60" fill-opacity="0.8"/>
</g>
</svg>
