<svg xmlns="http://www.w3.org/2000/svg" width="100%" height="100%" viewBox="0 0 253 172" fill="none" preserveAspectRatio="xMidYMid meet" aria-hidden="true" role="img">
<path d="M41.5 71.8333V1H112.333" stroke="currentColor" stroke-width="2" fill-opacity="1" stroke-opacity="1"></path>
<path d="M55.667 71.8334V15.1667H112.334" stroke="currentColor" stroke-width="2" fill-opacity="1" stroke-opacity="1"></path>
<path d="M69.833 71.8332V29.3333H112.333" stroke="currentColor" stroke-width="2" fill-opacity="1" stroke-opacity="1"></path>
<path d="M211.499 100.167L211.499 171L140.666 171" stroke="currentColor" stroke-width="2" fill-opacity="1" stroke-opacity="1"></path>
<path d="M197.332 100.167L197.332 156.833L140.665 156.833" stroke="currentColor" stroke-width="2" fill-opacity="1" stroke-opacity="1"></path>
<path d="M183.166 100.167L183.166 142.667L140.666 142.667" stroke="currentColor" stroke-width="2" fill-opacity="1" stroke-opacity="1"></path>
<path d="M88.2128 93.0229L120.577 93.0229L120.577 125.387" stroke="currentColor" stroke-width="2" fill-opacity="1" stroke-opacity="1"></path>
<path d="M80.2433 107.465L106.135 107.465L106.135 133.357" stroke="currentColor" stroke-width="2" fill-opacity="1" stroke-opacity="1"></path>
<path d="M73.8643 171L41.5 171L41.5 138.636" stroke="currentColor" stroke-width="2" fill-opacity="1" stroke-opacity="1"></path>
<path d="M81.8348 156.561L55.9434 156.561L55.9434 130.669" stroke="currentColor" stroke-width="2" fill-opacity="1" stroke-opacity="1"></path>
<path d="M166.19 78.6741L133.826 78.6741L133.826 46.3098" stroke="currentColor" stroke-width="2" fill-opacity="1" stroke-opacity="1"></path>
<path d="M174.159 64.2322L148.268 64.2322L148.268 38.3407" stroke="currentColor" stroke-width="2" fill-opacity="1" stroke-opacity="1"></path>
<circle cx="80.3373" cy="132.163" r="4.98083" fill="currentColor" stroke-width="1px" fill-opacity="1" stroke-opacity="1"></circle>
<circle cx="172.663" cy="39.8368" r="4.98083" fill="currentColor" stroke-width="1px" fill-opacity="1" stroke-opacity="1"></circle>
<path d="M179.137 0.999999L211.501 1L211.501 33.3643" stroke="currentColor" stroke-width="2" fill-opacity="1" stroke-opacity="1"></path>
<path d="M171.168 15.4424L197.06 15.4424L197.06 41.3338" stroke="currentColor" stroke-width="2" fill-opacity="1" stroke-opacity="1"></path>
</svg>